<?xml version="1.0" standalone="no"?><!DOCTYPE svg PUBLIC "-//W3C//DTD SVG 1.1//EN" "http://www.w3.org/Graphics/SVG/1.1/DTD/svg11.dtd"><svg t="1724159601185" class="icon" viewBox="0 0 1024 1024" version="1.1" xmlns="http://www.w3.org/2000/svg" p-id="6317" xmlns:xlink="http://www.w3.org/1999/xlink" width="25" height="25"><path d="M913.408 809.984H102.4c-22.528 0-40.96-18.432-40.96-40.96V517.12h892.928v251.904c0 22.528-18.432 40.96-40.96 40.96z" fill="#F7F7F7" p-id="6318"></path><path d="M913.408 823.296H102.4c-29.696 0-54.272-24.576-54.272-54.272V517.12c0-7.168 6.144-13.312 13.312-13.312h892.928c7.168 0 13.312 6.144 13.312 13.312v251.904c0 29.696-24.576 54.272-54.272 54.272z m-839.68-292.864v239.616c0 15.36 12.288 28.672 28.672 28.672h811.008c15.36 0 28.672-12.288 28.672-28.672V530.432H73.728z" fill="#32B999" p-id="6319"></path><path d="M954.368 517.12H61.44l128-115.712c7.168-6.144 16.384-10.24 26.624-10.24h585.728c9.216 0 19.456 4.096 26.624 10.24l125.952 115.712z" fill="#F7F7F7" p-id="6320"></path><path d="M954.368 530.432H61.44c-5.12 0-10.24-3.072-12.288-8.192-2.048-5.12-1.024-10.24 3.072-14.336l128-115.712c9.216-8.192 21.504-13.312 34.816-13.312h585.728c13.312 0 25.6 5.12 34.816 13.312l128 115.712c4.096 3.072 5.12 9.216 3.072 14.336s-7.168 8.192-12.288 8.192z m-860.16-25.6H921.6l-103.424-94.208c-5.12-4.096-11.264-7.168-17.408-7.168H215.04c-6.144 0-12.288 2.048-17.408 7.168L94.208 504.832z" fill="#32B999" p-id="6321"></path><path d="M233.472 449.536h540.672s9.216-41.984-43.008-67.584c0 0-15.36-118.784-145.408-118.784 0 0-13.312-35.84-81.92-35.84s-81.92 35.84-81.92 35.84C291.84 263.168 276.48 381.952 276.48 381.952c-52.224 25.6-43.008 67.584-43.008 67.584z" fill="#FCFFC7" p-id="6322"></path><path d="M774.144 459.776H233.472c-5.12 0-9.216-3.072-10.24-8.192-4.096-16.384 1.024-53.248 44.032-76.8 5.12-23.552 31.744-118.784 148.48-121.856 8.192-12.288 30.72-36.864 88.064-36.864s80.896 24.576 88.064 36.864c115.712 3.072 143.36 98.304 148.48 121.856 43.008 23.552 47.104 60.416 44.032 76.8-1.024 5.12-5.12 8.192-10.24 8.192z m-530.432-20.48h521.216c-1.024-11.264-6.144-32.768-37.888-48.128-3.072-1.024-5.12-4.096-5.12-8.192-1.024-4.096-15.36-109.568-135.168-109.568-4.096 0-8.192-3.072-9.216-6.144 0-1.024-13.312-29.696-72.704-29.696s-72.704 28.672-72.704 29.696c-2.048 4.096-5.12 6.144-9.216 6.144-119.808 0-134.144 105.472-135.168 109.568 0 3.072-2.048 6.144-5.12 8.192-32.768 15.36-38.912 36.864-38.912 48.128z" fill="#32B999" p-id="6323"></path><path d="M611.328 708.608H404.48c-24.576 0-44.032-19.456-44.032-44.032v-2.048c0-24.576 19.456-44.032 44.032-44.032h206.848c24.576 0 44.032 19.456 44.032 44.032v2.048c0 24.576-20.48 44.032-44.032 44.032z" fill="#FCFFC7" p-id="6324"></path><path d="M611.328 718.848H404.48c-29.696 0-54.272-24.576-54.272-54.272v-2.048c0-29.696 24.576-54.272 54.272-54.272h205.824c29.696 0 54.272 24.576 54.272 54.272v2.048c1.024 29.696-23.552 54.272-53.248 54.272z m-206.848-89.088c-18.432 0-33.792 15.36-33.792 33.792v2.048c0 18.432 15.36 33.792 33.792 33.792h205.824c18.432 0 33.792-15.36 33.792-33.792v-2.048c0-18.432-15.36-33.792-33.792-33.792H404.48z" fill="#32B999" p-id="6325"></path><path d="M548.864 668.672h-81.92c-3.072 0-5.12-2.048-5.12-5.12s2.048-5.12 5.12-5.12h81.92c3.072 0 5.12 2.048 5.12 5.12s-2.048 5.12-5.12 5.12z" fill="#32B999" p-id="6326"></path></svg>