<?xml version="1.0" standalone="no"?><!DOCTYPE svg PUBLIC "-//W3C//DTD SVG 1.1//EN" "http://www.w3.org/Graphics/SVG/1.1/DTD/svg11.dtd"><svg t="1724159640832" class="icon" viewBox="0 0 1024 1024" version="1.1" xmlns="http://www.w3.org/2000/svg" p-id="7646" xmlns:xlink="http://www.w3.org/1999/xlink" width="25" height="25"><path d="M101.9 756.2c-6-89.3 12.5-190.2 57.8-277 46.1-88.4 125.2-159 206.4-205.8 130.1-74.9 265.8-112.2 414-88.3 46.6 7.5 96.1 22.5 123.8 60.7 27.2 37.6 26.3 90 8.7 132.9S863 457 830.5 490c-160 163-355.4 299.5-578.1 349.8-32.6 7.4-68.3 12.5-98.4-2.2-30-14.7-47.7-32.4-52.1-81.4" fill="#FAD6A2" p-id="7647"></path><path d="M133.3 756.2c-2.3-34.6-0.9-69.3 3.6-103.6-0.4 2.8-0.7 5.6-1.1 8.3 6.4-46.9 18.6-92.9 36.9-136.6-1.1 2.5-2.1 5-3.2 7.5 15.2-36 34.5-69.7 58.3-100.6-1.6 2.1-3.3 4.2-4.9 6.3 27.9-36 60.7-68 96.7-95.9-2.1 1.6-4.2 3.3-6.3 4.9 48.8-37.7 103.6-67.8 160.3-91.8-2.5 1.1-5 2.1-7.5 3.2 51.3-21.6 105-37.3 160.2-44.8-2.8 0.4-5.6 0.7-8.3 1.1 49.2-6.5 98.9-6.4 148.1 0.2-2.8-0.4-5.6-0.7-8.3-1.1 27.4 3.8 54.8 9.2 80.4 19.8-2.5-1.1-5-2.1-7.5-3.2 12.4 5.2 24.2 11.7 34.9 19.9-2.1-1.6-4.2-3.3-6.3-4.9 7.8 6.1 14.8 13 20.9 20.8-1.6-2.1-3.3-4.2-4.9-6.3 5.6 7.4 10.2 15.4 13.8 24-1.1-2.5-2.1-5-3.2-7.5 3.9 9.6 6.5 19.5 8 29.7-0.4-2.8-0.7-5.6-1.1-8.3 1.8 13.5 1.6 27.1-0.2 40.6 0.4-2.8 0.7-5.6 1.1-8.3-2.1 14.7-6.1 28.9-11.8 42.6 1.1-2.5 2.1-5 3.2-7.5-8.7 20.5-20.7 39.4-34.3 57 1.6-2.1 3.3-4.2 4.9-6.3-23.3 29.9-50.6 56.7-77.7 83-26.7 25.8-54.2 50.8-82.5 74.8-16.1 13.6-32.5 26.8-49.2 39.7 2.1-1.6 4.2-3.3 6.3-4.9-62.7 48.4-129.5 91.6-200.3 127-19.9 9.9-40.1 19.2-60.5 27.9 2.5-1.1 5-2.1 7.5-3.2-29.3 12.3-59.2 23.3-89.6 32.6-30.9 9.5-62.6 18.4-94.6 22.9 2.8-0.4 5.6-0.7 8.3-1.1-13.8 1.8-27.6 2.4-41.4 0.6 2.8 0.4 5.6 0.7 8.3 1.1-7.9-1.2-15.5-3.2-22.9-6.1 2.5 1.1 5 2.1 7.5 3.2-9.2-3.9-18-8.9-25.9-15 2.1 1.6 4.2 3.3 6.3 4.9-4.8-3.8-9.2-8.1-12.9-12.9 1.6 2.1 3.3 4.2 4.9 6.3-3.7-5-6.7-10.3-9.2-16 1.1 2.5 2.1 5 3.2 7.5-3.9-9.6-6.2-19.7-7.7-29.9 0.4 2.8 0.7 5.6 1.1 8.3-0.8-3.4-1.1-6.7-1.4-9.9-0.8-8.5-3-16-9.2-22.2-5.4-5.4-14.4-9.5-22.2-9.2-15.7 0.7-33 13.9-31.4 31.4 2 21.1 5.7 41 15.2 60.1 7.7 15.5 19.9 27.4 33.7 37.4 14.2 10.3 31.6 18.3 48.9 21.6 24.7 4.7 48.9 2.9 73.6-1.4 38.4-6.8 76.4-18 113.2-30.7 38.6-13.3 76.4-29 113.2-46.6 70.1-33.6 136.4-75 198.7-121.5 64.3-48.1 124.7-101 181.2-158.1 29.7-30 59.2-61.5 80-98.5 20.5-36.4 32.6-79.3 27.2-121.3-2.9-22.4-9-44.2-21.6-63.3-12.2-18.6-28.2-33.7-46.9-45.5-32.5-20.6-71.3-29.7-109-35.1-42.7-6.1-85.6-8.4-128.7-5.1-41.9 3.2-83.5 10.6-123.9 22.2-40.7 11.7-80.2 27.6-118.3 45.9-35.8 17.3-70.7 36.8-103.2 59.7-66.4 46.7-125.7 105.8-165.5 177.1-41.9 75-64.3 161.2-68.1 246.8a525 525 0 0 0 0.6 56.1c0.6 8.4 3.1 16.1 9.2 22.2 5.4 5.4 14.4 9.5 22.2 9.2 15.8-0.6 32.2-13.7 31.1-31.2z" fill="#D08D4F" p-id="7648"></path><path d="M143.6 512.2c30.5 10 56.3 30.4 81.5 50.3 10.1 8 20.1 16 30.2 24 4.9-18.5-4.2-37.5-13.5-54.2-19.7-35.4-34.6-59.7-58.8-92.2" fill="#FAD6A2" p-id="7649"></path><path d="M137.4 534.9c2.5 0.8 5 1.7 7.4 2.7 4.9 1.9 0 0.1 0 0 0 0 2.9 1.3 3.2 1.4 4.7 2.2 9.4 4.6 13.9 7.2 9.4 5.4 18.3 11.5 27 17.9 2.1 1.6 4.2 3.1 6.3 4.7 0.9 0.7 1.9 1.4 2.8 2.1-2.2-2-2.1-1.6 0.1 0.1 4.2 3.3 8.4 6.6 12.6 10l27.9 22.2c6.8 5.4 14.1 8.5 22.9 6 7.7-2.1 14.5-8.5 16.4-16.4 8.4-34.9-12.1-66.4-28.9-95.2-14-23.9-29.2-47-45.8-69.2-3.8-5.1-7.7-9.1-14.1-10.8-5.6-1.6-13.1-0.9-18.1 2.4-9.7 6.3-16.3 21.6-8.4 32.2 15.5 20.9 30 42.5 43.3 64.9 6.8 11.6 13.7 23.2 19.9 35.2 0.8 1.6 1.6 3.3 2.4 4.9 0.4 0.8 0.8 1.7 1.1 2.5 0.7 1.6 0.5 1.1-0.6-1.4 2 1.8 2.7 7.7 3.4 10.3 0.4 1.4 1.4 3.8 1.1 5.2-0.1-0.9-0.3-1.9-0.4-2.8 0.1 1.2 0.2 2.3 0.2 3.5 0 1.4-0.1 2.9-0.1 4.4-0.1 1.8 0 1.2 0.3-1.9-0.2 1.2-0.5 2.3-0.8 3.5 13.1-3.5 26.2-6.9 39.3-10.4-38-30.2-75.2-64.7-122-80.3-11.7-3.9-26.2 4.5-28.9 16.4-2.8 12.7 4.1 24.5 16.6 28.7z" fill="#D08D4F" p-id="7650"></path><path d="M264.6 349.2c35.6 21.7 67.5 49.3 94.1 81.4 9.3 11.2 18 23.1 29.7 31.7 5.8-9.1 4.8-20.9 2.8-31.5-10.4-54-32.9-87.6-63.9-133" fill="#FAD6A2" p-id="7651"></path><path d="M252.7 369.5c5.9 3.6 11.8 7.4 17.5 11.3 2.9 2 5.7 4 8.5 6 1.4 1 2.8 2.1 4.2 3.1 0.9 0.7 1.8 1.4 2.8 2.1-0.7-0.5-1.3-1-2-1.6 11.5 8.1 22 18.2 32 28 9.9 9.7 19.3 20 28.1 30.8 10.1 12.4 20 23.7 32.8 33.4 4.3 3.3 13.1 4 18.1 2.4 5.9-1.9 10.9-5.4 14.1-10.8 11.3-19 7.5-41 2.6-61.4-3.9-16.3-9.6-32-16.3-47.4-12.4-28.4-30.1-54-47.4-79.5-6.9-10.1-21-15.7-32.2-8.4-10.1 6.5-15.9 21.3-8.4 32.2 16.3 23.8 32.8 47.8 45 74 0.6 1.4 1.3 2.7 1.9 4.1 0.4 0.9 0.8 1.8 1.2 2.8-1.4-3.3-1.6-3.8-0.6-1.4l3.6 9.3c2.4 6.7 4.6 13.6 6.4 20.5 1 3.8 1.9 7.6 2.8 11.4 0.7 3.1 2.7 8.5 2.2 11.6-0.4-3.3-0.5-4-0.3-2.2 0.1 0.8 0.1 1.6 0.2 2.5 0 0.6 0.4 6.4-0.1 6.5 0.7-0.1 0.6-5.8-0.2 0-0.8 2.4-0.6 2 0.7-1.2-0.5 1-1 1.9-1.5 2.8 10.7-2.8 21.5-5.6 32.2-8.4 4.6 3.5 0.4 0.2-0.6-0.7-1.3-1.2-2.6-2.3-3.8-3.6-2.5-2.4-4.8-5-7.1-7.6-4.6-5.3-8.9-10.8-13.4-16.2-9-10.9-18.7-21.3-28.9-31.2-21.2-20.4-44.8-38.6-69.9-53.9-10.5-6.4-26.3-2.6-32.2 8.4-6.4 11.6-3.2 25.5 8 32.3z" fill="#D08D4F" p-id="7652"></path><path d="M425.6 244c41.8 34.7 76 78.5 99.7 127.4 0.9 2 2 4.1 4 5 4.5 2.1 8.8-3.4 10.5-8.2 9.1-26.7 3.6-56.2-6.4-82.6-10-26.3-24.3-50.9-33.4-77.6" fill="#FAD6A2" p-id="7653"></path><path d="M408.9 260.6c18.1 15.1 34.8 31.7 49.8 49.9 1.8 2.2 3.6 4.3 5.3 6.5 0.7 0.9 4.5 5.2 0.5 0.5 0.9 1.1 1.7 2.2 2.5 3.4 3.5 4.7 6.9 9.5 10.2 14.4 6.6 9.7 12.8 19.8 18.4 30.1 7.2 13.1 12.2 30 28.5 34.1 12.2 3.1 23.9-2.3 31.2-11.9 4.9-6.4 7.6-13.9 9.4-21.7 6.3-28 1.8-57.3-7.9-83.9-5.4-14.8-12.1-29.2-18.8-43.5-3.1-6.7-6.2-13.3-9.2-20.1-0.5-1.1-1.1-2.2-1.5-3.4 2 5.8-0.7-1.8-1.1-2.9-1.3-3.4-2.6-6.9-3.8-10.3-4-11.6-16.3-20.5-28.9-16.4-11.5 3.7-20.7 16.5-16.4 28.9 8.2 23.7 19.9 45.9 29.9 68.8 0.5 1.2 2.4 5.1 0.2 0.3 0.5 1.1 0.9 2.3 1.4 3.4 1 2.5 2 5.1 3 7.7 2.1 5.7 3.9 11.4 5.4 17.3 1.4 5.3 2.4 10.6 3.3 16 0.6 3.7-0.5-5.9-0.1 0l0.3 3.6c0.2 3.3 0.3 6.5 0.2 9.8-0.1 2.7-0.3 5.3-0.5 8-0.5 5.8 0.8-3.7 0-0.1-0.3 1.4-0.5 2.9-0.9 4.4-0.5 2.3-1.3 4.6-1.9 6.9-1.4 5.6 1.9-3.4 0.3-0.7-0.9 1.5-0.4 0.9 1.5-1.8 4.1-4.1 9.1-3.8 15 1 15.4 3.8 13.4 5.4 9.6-2.3-1.2-2.5-2.5-5-3.8-7.5-2.6-5-5.3-9.9-8.1-14.7-11.4-19.7-24.7-38.2-39.1-55.8-15.3-18.6-32.4-35.7-50.9-51.2-9.4-7.9-24.1-9.9-33.3 0-7.7 8.6-9.8 24.8 0.3 33.2z" fill="#D08D4F" p-id="7654"></path><path d="M586.3 188c35.9 32.5 60 77.9 66.9 125.9 3.2-1.1 5.4-4 7.4-6.8 22.7-33.3 31-76.1 22.3-115.5" fill="#FAD6A2" p-id="7655"></path><path d="M569.7 204.7c8.9 8.1 16.1 17.2 24.2 26-4.1-4.5-0.6-0.7 0.2 0.4l2.4 3.3c1.7 2.4 3.4 4.9 5 7.4 3.2 5 6.2 10.1 9 15.3 2.8 5.2 4.8 10.9 7.7 16-1.2-2.2-1.4-3.5-0.2-0.4 0.5 1.3 1 2.5 1.5 3.8 1.1 3 2.2 6.1 3.2 9.1 3.7 11.3 6.3 22.8 8.1 34.6 1 7 7.6 12.7 13.6 15.2 7.5 3.2 13.7 1.9 20.9-1.2 12.2-5.3 20.1-20.9 25.8-32.4 5.9-11.9 10.8-24.5 13.9-37.5 6.2-26.1 6.4-52.8 0.8-79-2.6-12.1-17.3-20.2-28.9-16.4-12.7 4.1-19.2 16-16.4 28.9 0.6 2.7 1.1 5.4 1.5 8.1 0.6 3.3 0.4-0.3-0.1-1.3 0.5 1.1 0.3 2.9 0.4 4.1 0.5 4.9 0.7 9.9 0.7 14.9 0 5.3-0.5 10.5-0.9 15.7-0.4 4.5 0.6-3.5 0.1-0.5-0.2 1.1-0.3 2.2-0.5 3.3-0.5 2.7-1 5.4-1.6 8.1-1.1 4.8-2.4 9.6-4 14.4-0.8 2.4-1.6 4.7-2.5 7-0.1 0.3-2 5.3-0.7 1.8 1.3-3.4-0.5 1-0.8 1.7-2.1 4.5-4.4 8.9-7 13.2-1.4 2.4-3 4.7-4.5 7-1.7 2.6 0.3-0.4 1-1.2-2.8 3.3 4-2.1 0.1-0.4 11.5 4.7 23 9.4 34.6 14.1-7.6-51.8-34.4-101-73-136.2-9.1-8.3-24.4-9.7-33.3 0-8.6 8.8-10 24.2-0.3 33.1z" fill="#D08D4F" p-id="7656"></path><path d="M728.1 519.2c16.4 0 32.1-14.4 31.4-31.4-0.8-17-13.8-31.4-31.4-31.4-16.4 0-32.1 14.4-31.4 31.4 0.8 17.1 13.8 31.4 31.4 31.4z" fill="#D08D4F" p-id="7657"></path><path d="M795.1 403.3c-0.4-0.7-0.7-1.4-1.1-2.1-2-3.7-4.7-6.6-8.1-8.8-3-2.8-6.6-4.6-10.7-5.6-4.2-1.3-8.3-1.5-12.5-0.6-4.2 0.2-8.1 1.4-11.7 3.7-2.1 1.6-4.2 3.3-6.3 4.9-3.9 3.9-6.6 8.5-8.1 13.8-0.4 2.8-0.7 5.6-1.1 8.3 0 5.7 1.4 10.9 4.3 15.8 0.4 0.7 0.7 1.4 1.1 2.1 2 3.7 4.7 6.6 8.1 8.8 3 2.8 6.6 4.6 10.7 5.6 4.2 1.3 8.3 1.5 12.5 0.6 4.2-0.2 8.1-1.4 11.7-3.7 2.1-1.6 4.2-3.3 6.3-4.9 3.9-3.9 6.6-8.5 8.1-13.8 0.4-2.8 0.7-5.6 1.1-8.3 0-5.6-1.4-10.9-4.3-15.8z" fill="#D08D4F" p-id="7658"></path><path d="M672.2 550.6c0.7-0.4 1.4-0.7 2.1-1.1 3.7-2 6.6-4.7 8.8-8.1 2.8-3 4.6-6.6 5.6-10.7 1.3-4.2 1.5-8.3 0.6-12.5-0.2-4.2-1.4-8.1-3.7-11.7-1.6-2.1-3.3-4.2-4.9-6.3-3.9-3.9-8.5-6.6-13.8-8.1-2.8-0.4-5.6-0.7-8.3-1.1-5.7 0-10.9 1.4-15.8 4.3-0.7 0.4-1.4 0.7-2.1 1.1-3.7 2-6.6 4.7-8.8 8.1-2.8 3-4.6 6.6-5.6 10.7-1.3 4.2-1.5 8.3-0.6 12.5 0.2 4.2 1.4 8.1 3.7 11.7 1.6 2.1 3.3 4.2 4.9 6.3 3.9 3.9 8.5 6.6 13.8 8.1 2.8 0.4 5.6 0.7 8.3 1.1 5.6-0.1 10.9-1.5 15.8-4.3z" fill="#D08D4F" p-id="7659"></path><path d="M186.3 738.3c-0.7-18.9-0.2-37.8 1.6-56.7 0.4-4.8 1-9.6 1.6-14.3 0.8-6.5-0.8 5.1 0.2-1.4 0.4-2.5 0.8-5.1 1.2-7.6 1.5-9.5 3.4-18.9 5.6-28.3 2.7-12-3.7-26-16.4-28.9-12-2.7-26 3.6-28.9 16.4-9.1 39.5-13.2 80.3-11.8 120.8 0.4 12.3 10.5 24.1 23.5 23.5 12.3-0.5 23.9-10.3 23.4-23.5z" fill="#FFFBF8" p-id="7660"></path></svg>