<?xml version="1.0" standalone="no"?><!DOCTYPE svg PUBLIC "-//W3C//DTD SVG 1.1//EN" "http://www.w3.org/Graphics/SVG/1.1/DTD/svg11.dtd"><svg t="1718166506302" class="icon" viewBox="0 0 1024 1024" version="1.1" xmlns="http://www.w3.org/2000/svg" p-id="5267" xmlns:xlink="http://www.w3.org/1999/xlink" width="25" height="25"><path d="M828.8 195.2C745.6 112 630.4 64 512 64 265.6 64 64 265.6 64 512s201.6 448 448 448 448-201.6 448-448c0-118.4-48-233.6-131.2-316.8z m-51.2 582.4c-70.4 70.4-166.4 112-265.6 112-208 0-377.6-169.6-377.6-377.6C134.4 304 304 134.4 512 134.4S889.6 304 889.6 512c0 99.2-41.6 195.2-112 265.6z" fill="#e6e6e6" p-id="5268"></path><path d="M556.8 419.2l-124.8-73.6c-6.4-3.2-16-3.2-22.4 3.2s-9.6 12.8-9.6 22.4v278.4c0 9.6 3.2 16 9.6 22.4s16 6.4 22.4 3.2l124.8-73.6 115.2-67.2c6.4-6.4 12.8-12.8 12.8-22.4s-3.2-19.2-12.8-22.4l-115.2-70.4z" fill="#e6e6e6" p-id="5269"></path></svg>