<?xml version="1.0" standalone="no"?><!DOCTYPE svg PUBLIC "-//W3C//DTD SVG 1.1//EN" "http://www.w3.org/Graphics/SVG/1.1/DTD/svg11.dtd"><svg t="1708505291168" class="icon" viewBox="0 0 1024 1024" version="1.1" xmlns="http://www.w3.org/2000/svg" p-id="16587" width="32" height="32" xmlns:xlink="http://www.w3.org/1999/xlink"><path d="M972.101934 391.355272c-21.124706-43.418945-65.420801-71.414662-121.485331-71.414662L708.225855 319.94061c0.292383-0.292383 0.730959-0.365479 1.023342-0.657863C716.704975 311.826968 721.090727 301.520451 721.090727 291.360126c0-10.671997-4.385752-20.539939-11.402955-27.995717-14.546078-14.546078-41.372261-14.546078-55.918338 0C646.606039 270.454708 642.220287 280.688129 642.220287 291.360126c0 10.233421 3.947177 20.466843 11.402955 27.922621C655.596831 321.183239 658.155186 322.352773 660.494254 323.814691 646.971518 330.100935 637.469056 343.550575 637.469056 359.412378c0 21.782568 17.6892 39.398672 39.398672 39.398672l173.67578 0c25.071882 0 43.053466 11.476051 50.655436 27.045471 9.429367 19.297309 2.923835 49.997573-17.6892 76.312085l-298.084945 406.486116c-39.252481 50.143765-105.915911 44.296095-146.484117-7.528874L139.759298 503.703619C119.804126 478.266257 113.37169 447.127418 123.312728 426.733671c7.821258-16.081091 25.656649-27.922621 50.216861-27.922621l148.750089 0c21.782568 0 47.21993-11.622243 47.21993-33.404811L369.499607 240.997073c0-86.399315 63.301021-162.199729 139.613106-162.199729 46.927547 0 104.453994 13.522735 129.598972 77.920194C646.532943 177.03819 669.850525 187.125419 690.171176 179.15797 710.418731 171.19052 721.456207 148.38461 713.488757 128.063959 681.692055 46.708259 608.303805 0 508.747234 0 388.431437 0 290.629167 110.374759 290.629167 240.997073l0 78.943536L173.529588 319.94061c-55.552859 0-99.702763 28.288101-121.046756 72.218717-23.390677 48.09708-13.668927 111.909772 24.852595 161.030195l299.254479 396.69127c36.913413 47.073738 88.445999 74.046113 141.440503 74.046113 49.997573 0 95.974873-24.267828 130.256835-68.052252l298.084945-407.436362C984.966807 499.244771 994.834749 438.063531 972.101934 391.355272z" fill="#8a8a8a" p-id="16588"></path></svg>