<?xml version="1.0" standalone="no"?><!DOCTYPE svg PUBLIC "-//W3C//DTD SVG 1.1//EN" "http://www.w3.org/Graphics/SVG/1.1/DTD/svg11.dtd"><svg t="1708505300538" class="icon" viewBox="0 0 1024 1024" version="1.1" xmlns="http://www.w3.org/2000/svg" p-id="16865" xmlns:xlink="http://www.w3.org/1999/xlink" width="32" height="32"><path d="M52.062223 632.41901C73.179392 675.822463 117.459683 703.735122 173.50421 703.735122l142.339946 0c-0.292279 0.292279-0.730698 0.365349-1.022977 0.657628-7.453118 7.453118-11.837306 17.755958-11.837306 27.912659 0 10.668189 4.384187 20.53261 11.398887 27.985729 14.540888 14.540888 41.3575 14.540888 55.898387 0 7.087769-7.087769 11.398887-17.31754 11.398887-27.985729 0-10.22977-3.945769-20.45954-11.398887-27.912659C368.454403 702.492936 365.89696 701.396889 363.558727 699.862423c13.517911-6.210932 22.943913-19.655773 22.943913-35.584986 0-21.774797-17.682889-39.384615-39.384615-39.384615L173.50421 624.892821c-25.062937 0-43.038105-11.471957-50.637363-27.035821-9.426003-19.290424-2.922791-49.979735 17.682889-76.284858l297.978593-406.341087c39.238476-50.125874 105.878122-44.280291 146.431854 7.526188l299.147709 397.280434c19.948052 25.428286 26.378193 56.482946 16.440702 76.942486-7.818467 16.075353-25.647495 27.912659-50.198944 27.912659L701.725703 624.892821c-21.774797 0-47.203083 11.618096-47.203083 33.392893l0 124.364778c0 86.368489-63.278436 162.141858-139.563294 162.141858-46.910803 0-104.416726-13.517911-129.552733-77.892393-7.964607-20.240331-31.200799-30.323962-51.5142-22.359355-20.240331 7.964607-31.273869 30.76238-23.309262 51.075781 31.785357 81.326673 105.147424 128.018267 204.668474 128.018267 120.27287 0 218.040245-110.335379 218.040245-240.911089l0-78.91537 117.057799 0c55.533038 0 99.66719-28.278008 121.003568-72.19295 23.382332-48.07992 13.66405-111.869844-24.843728-160.972742L647.434851 74.019695C610.534608 26.962752 558.947338 0 505.971743 0 455.992008 0 410.031112 24.259169 375.761381 68.027972L77.782789 475.392037C39.201941 524.568003 29.33752 585.654346 52.062223 632.41901z" fill="#8a8a8a" p-id="16866"></path></svg>