<?xml version="1.0" standalone="no"?><!DOCTYPE svg PUBLIC "-//W3C//DTD SVG 1.1//EN" "http://www.w3.org/Graphics/SVG/1.1/DTD/svg11.dtd"><svg t="1722842423379" class="icon" viewBox="0 0 1024 1024" version="1.1" xmlns="http://www.w3.org/2000/svg" p-id="20931" xmlns:xlink="http://www.w3.org/1999/xlink" width="25" height="25"><path d="M582.1 512l427.4-427.4c19.4-19.3 19.4-50.7 0-70.1-19.4-19.4-50.7-19.4-70.1 0L512 441.9 84.6 14.5c-19.4-19.4-50.7-19.4-70.1 0-19.4 19.3-19.4 50.7 0 70.1L441.9 512 14.5 939.4c-19.4 19.4-19.4 50.7 0 70.1 9.7 9.7 22.4 14.5 35 14.5 12.7 0 25.4-4.8 35-14.5L512 582.1l427.4 427.4c9.7 9.7 22.4 14.5 35 14.5 12.7 0 25.4-4.8 35-14.5 19.4-19.4 19.4-50.7 0-70.1L582.1 512z" fill="#27D0D8" p-id="20932"></path></svg>