<svg t="1722837579650" class="icon" viewBox="0 0 1024 1024" version="1.1" xmlns="http://www.w3.org/2000/svg" p-id="10307" width="30" height="30"><path d="M368.768 474.048a38.4 38.4 0 0 0-37.888 32.192l-0.512 6.208v384a38.4 38.4 0 0 0 32.192 37.888l6.208 0.512h512a38.4 38.4 0 0 0 37.888-32.192l0.512-6.208v-384a38.4 38.4 0 0 0-32.128-37.888l-6.272-0.512h-512z m38.464 76.736h435.2v307.2h-435.2v-307.2z m25.6-423.232a38.4 38.4 0 0 0-4.416 48.96l4.48 5.312 30.912 30.976A422.4 422.4 0 0 0 77.632 633.6a38.4 38.4 0 1 0 76.8 0 345.6 345.6 0 0 1 307.712-343.552l-29.248 29.44a38.4 38.4 0 0 0-4.48 48.96l4.48 5.312a38.4 38.4 0 0 0 48.96 4.48l5.312-4.48 96-96a38.4 38.4 0 0 0 4.48-48.96l-4.48-5.312-96-96a38.4 38.4 0 0 0-54.272 0z" p-id="10308" fill="#cdcdcd"></path></svg>