<svg t="1717768163002" class="icon" viewBox="0 0 1024 1024" version="1.1" xmlns="http://www.w3.org/2000/svg" p-id="1493" width="25" height="25"><path d="M969.28 940.16l-175.36-175.36c78.72-82.24 123.84-196.16 114.56-318.72-16.96-218.56-199.04-384.64-414.72-384.64-10.56 0-21.12 0.32-32 1.28C232.96 80 61.12 279.68 78.72 508.8c16.64 218.24 199.04 384.64 414.4 384.64 10.56 0 21.12-0.32 32-1.28 83.52-6.4 159.36-37.12 221.44-84.8l177.92 177.92c6.4 6.4 14.4 9.28 22.72 9.28s16.32-3.2 22.72-9.28c11.84-12.48 11.84-32.64-0.64-45.12z m-449.28-111.68c-8.96 0.64-18.24 0.96-27.2 0.96-182.72 0-336.64-143.04-350.4-325.44-7.04-93.76 22.72-184.64 83.84-256a348.768 348.768 0 0 1 267.52-122.56c182.72 0 336.64 143.04 350.4 325.44 7.04 93.76-22.72 184.64-83.84 256a351.36 351.36 0 0 1-240.32 121.6z" fill="#e6e6e6" p-id="1494"></path><path d="M685.44 445.44h-384c-17.6 0-32 14.4-32 32s14.4 32 32 32h384c17.6 0 32-14.4 32-32s-14.4-32-32-32z" fill="#e6e6e6" p-id="1495"></path></svg>